<svg width="1512" height="1350" viewBox="0 0 1512 1350" fill="none" xmlns="http://www.w3.org/2000/svg">
<path d="M0.000101089 119H1512V1172H0.000101089V119Z" fill="#35728C"/>
<path d="M1512 1306.43C1512 1306.43 1237.16 1231.68 810.731 1315.06C384.3 1398.43 4.57764e-05 1306.43 4.57764e-05 1306.43V1166H1512V1306.43Z" fill="#35728C"/>
<path d="M1512 194.035C1512 194.035 1237.16 123.755 810.731 202.145C384.3 280.535 0 194.035 0 194.035V62H1512V194.035Z" fill="#97C7DB"/>
<path d="M1512 140.431C1512 140.431 1237.16 65.6812 810.731 149.056C384.3 232.43 4.57764e-05 140.431 4.57764e-05 140.431V0H1512V140.431Z" fill="#FFFDF9"/>
</svg>
