<svg width="431" height="139" viewBox="0 0 431 139" fill="none" xmlns="http://www.w3.org/2000/svg">
<mask id="mask0_1086_170" style="mask-type:alpha" maskUnits="userSpaceOnUse" x="0" y="0" width="431" height="139">
<rect width="431" height="139" fill="#D9D9D9"/>
</mask>
<g mask="url(#mask0_1086_170)">
<path d="M0 -981.231C70.5 -958.183 138.5 -952.5 215 -972.817C291.5 -993.134 338 -1008 431 -981.231V0H0V-981.231Z" fill="url(#paint0_linear_1086_170)"/>
<path d="M431 106.158C431 106.158 352.681 50.1837 231.164 112.617C109.647 175.05 0.13599 106.158 0.13599 106.158L0 0H431V106.158Z" fill="url(#paint1_linear_1086_170)"/>
<path d="M431 -958.183C431 -958.183 352.657 -993.191 231.101 -954.143C109.546 -915.096 0 -958.183 0 -958.183V-981.231C38.2312 -969.842 59.4893 -963.338 111 -961.041C111 -961.041 141.5 -959.9 170 -963.702C198.5 -967.505 231.101 -977.191 231.101 -977.191C231.101 -977.191 289 -995.612 338 -995.612C403 -995.612 431 -981.231 431 -981.231V-958.183Z" fill="#97C7DC"/>
</g>
<defs>
<linearGradient id="paint0_linear_1086_170" x1="215.5" y1="-1047" x2="215.5" y2="138.784" gradientUnits="userSpaceOnUse">
<stop offset="1" stop-color="#35728C"/>
</linearGradient>
<linearGradient id="paint1_linear_1086_170" x1="215.5" y1="-1047" x2="215.5" y2="138.784" gradientUnits="userSpaceOnUse">
<stop offset="1" stop-color="#35728C"/>
</linearGradient>
</defs>
</svg>
