<svg viewBox="0 0 431 195" fill="none" xmlns="http://www.w3.org/2000/svg">
<mask id="mask0_1086_167" style="mask-type:alpha" maskUnits="userSpaceOnUse" x="0" y="0" width="431" height="195">
<rect width="431" height="195" fill="#D9D9D9"/>
</mask>
<g mask="url(#mask0_1086_167)">
<path d="M0 70.7695C70.5 93.8173 138.5 99.5 215 79.1832C291.5 58.8663 338 44 431 70.7695V1052H0V70.7695Z" fill="url(#paint0_linear_1086_167)"/>
<path d="M431 1158.16C431 1158.16 352.681 1102.18 231.164 1164.62C109.647 1227.05 0.13599 1158.16 0.13599 1158.16L0 1052H431V1158.16Z" fill="url(#paint1_linear_1086_167)"/>
<path d="M431 93.8173C431 93.8173 352.657 58.809 231.101 97.8568C109.546 136.904 0 93.8173 0 93.8173V70.7695C38.2312 82.1581 59.4893 88.6616 111 90.9592C111 90.9592 141.5 92.0998 170 88.2976C198.5 84.4954 231.101 74.8089 231.101 74.8089C231.101 74.8089 289 56.3876 338 56.3876C403 56.3876 431 70.7695 431 70.7695V93.8173Z" fill="#97C7DC"/>
</g>
<defs>
<linearGradient id="paint0_linear_1086_167" x1="215.5" y1="5" x2="215.5" y2="1190.78" gradientUnits="userSpaceOnUse">
<stop offset="1" stop-color="#35728C"/>
</linearGradient>
<linearGradient id="paint1_linear_1086_167" x1="215.5" y1="5" x2="215.5" y2="1190.78" gradientUnits="userSpaceOnUse">
<stop offset="1" stop-color="#35728C"/>
</linearGradient>
</defs>
</svg>
