<svg width="1512" height="1356" viewBox="0 0 1512 1356" fill="none" xmlns="http://www.w3.org/2000/svg">
<path d="M4.57764e-05 119H1512V1172H4.57764e-05V119Z" fill="#35728C"/>
<path d="M1511 1312.43C1511 1312.43 1236.34 1237.68 810.195 1321.06C384.046 1404.43 4.57764e-05 1312.43 4.57764e-05 1312.43V1172H1511V1312.43Z" fill="#35728C"/>
<path d="M1512 194.035C1512 194.035 1237.16 123.755 810.731 202.145C384.3 280.535 0 194.035 0 194.035V62H1512V194.035Z" fill="#97C7DB"/>
<path d="M1512 140.431C1512 140.431 1237.16 65.6812 810.731 149.056C384.3 232.43 4.57764e-05 140.431 4.57764e-05 140.431V0H1512V140.431Z" fill="#FFFDF9"/>
</svg>
