<svg width="51" height="51" viewBox="0 0 51 51" fill="none" xmlns="http://www.w3.org/2000/svg">
<path fill-rule="evenodd" clip-rule="evenodd" d="M25.5 6.375C20.3056 6.375 19.6554 6.39668 17.6154 6.48975C15.5792 6.58282 14.1882 6.90667 12.9718 7.3797C11.6968 7.8591 10.5404 8.61135 9.58417 9.58545C8.61163 10.5406 7.85892 11.6962 7.37842 12.9718C6.90795 14.1882 6.58282 15.5805 6.48975 17.6167C6.39795 19.6554 6.375 20.3044 6.375 25.5C6.375 30.6956 6.39668 31.3446 6.48975 33.3846C6.58282 35.4208 6.90667 36.8118 7.3797 38.0281C7.8591 39.3031 8.61135 40.4596 9.58545 41.4158C10.5406 42.3883 11.6962 43.141 12.9718 43.6216C14.1882 44.0933 15.5792 44.4172 17.6154 44.5102C19.6554 44.6033 20.3056 44.625 25.5 44.625C30.6943 44.625 31.3446 44.6033 33.3846 44.5102C35.4208 44.4172 36.8118 44.0933 38.0281 43.6203C39.3031 43.1409 40.4596 42.3886 41.4158 41.4145C42.3884 40.4594 43.1411 39.3038 43.6216 38.0281C44.0933 36.8118 44.4172 35.4208 44.5102 33.3846C44.6033 31.3446 44.625 30.6943 44.625 25.5C44.625 20.3056 44.6033 19.6554 44.5102 17.6154C44.4172 15.5792 44.0933 14.1882 43.6203 12.9718C43.1402 11.6957 42.3874 10.5396 41.4145 9.58417C40.4594 8.61163 39.3038 7.85892 38.0281 7.37842C36.8118 6.90795 35.4195 6.58282 33.3833 6.48975C31.3446 6.39795 30.6956 6.375 25.5 6.375ZM25.5 9.82133C30.6064 9.82133 31.212 9.84045 33.229 9.93225C35.0931 10.0177 36.1054 10.3275 36.7799 10.5914C37.6724 10.9369 38.3099 11.3526 38.9793 12.0207C39.6487 12.6901 40.0631 13.3276 40.4086 14.2201C40.6712 14.8945 40.9823 15.9069 41.0677 17.7709C41.1595 19.788 41.1787 20.3936 41.1787 25.5C41.1787 30.6064 41.1595 31.212 41.0677 33.229C40.9823 35.0931 40.6725 36.1054 40.4086 36.7799C40.1025 37.6106 39.6141 38.3622 38.9793 38.9793C38.3623 39.6142 37.6107 40.1026 36.7799 40.4086C36.1054 40.6712 35.0931 40.9823 33.229 41.0677C31.212 41.1595 30.6076 41.1787 25.5 41.1787C20.3923 41.1787 19.788 41.1595 17.7709 41.0677C15.9069 40.9823 14.8945 40.6725 14.2201 40.4086C13.3894 40.1025 12.6378 39.6141 12.0207 38.9793C11.386 38.3621 10.8976 37.6106 10.5914 36.7799C10.3288 36.1054 10.0177 35.0931 9.93225 33.229C9.84045 31.212 9.82133 30.6064 9.82133 25.5C9.82133 20.3936 9.84045 19.788 9.93225 17.7709C10.0177 15.9069 10.3275 14.8945 10.5914 14.2201C10.9369 13.3276 11.3526 12.6901 12.0207 12.0207C12.6377 11.3858 13.3893 10.8974 14.2201 10.5914C14.8945 10.3288 15.9069 10.0177 17.7709 9.93225C19.788 9.84045 20.3936 9.82133 25.5 9.82133V9.82133Z" fill="#FFFDF9"/>
<path fill-rule="evenodd" clip-rule="evenodd" d="M25.5 31.8814C24.662 31.8814 23.8322 31.7164 23.0579 31.3957C22.2837 31.075 21.5802 30.6049 20.9877 30.0124C20.3951 29.4198 19.9251 28.7163 19.6044 27.9421C19.2837 27.1679 19.1186 26.3381 19.1186 25.5C19.1186 24.662 19.2837 23.8322 19.6044 23.058C19.9251 22.2838 20.3951 21.5803 20.9877 20.9877C21.5802 20.3952 22.2837 19.9251 23.0579 19.6044C23.8322 19.2837 24.662 19.1187 25.5 19.1187C27.1924 19.1187 28.8156 19.791 30.0123 20.9877C31.209 22.1845 31.8814 23.8076 31.8814 25.5C31.8814 27.1925 31.209 28.8156 30.0123 30.0124C28.8156 31.2091 27.1924 31.8814 25.5 31.8814V31.8814ZM25.5 15.6698C22.8928 15.6698 20.3925 16.7055 18.549 18.549C16.7054 20.3925 15.6697 22.8929 15.6697 25.5C15.6697 28.1072 16.7054 30.6075 18.549 32.4511C20.3925 34.2946 22.8928 35.3303 25.5 35.3303C28.1071 35.3303 30.6075 34.2946 32.451 32.4511C34.2946 30.6075 35.3302 28.1072 35.3302 25.5C35.3302 22.8929 34.2946 20.3925 32.451 18.549C30.6075 16.7055 28.1071 15.6698 25.5 15.6698V15.6698ZM38.1901 15.4913C38.1901 16.1076 37.9452 16.6986 37.5095 17.1344C37.0737 17.5702 36.4827 17.815 35.8664 17.815C35.2501 17.815 34.6591 17.5702 34.2233 17.1344C33.7875 16.6986 33.5427 16.1076 33.5427 15.4913C33.5427 14.875 33.7875 14.284 34.2233 13.8482C34.6591 13.4124 35.2501 13.1676 35.8664 13.1676C36.4827 13.1676 37.0737 13.4124 37.5095 13.8482C37.9452 14.284 38.1901 14.875 38.1901 15.4913" fill="#FFFDF9"/>
</svg>
