<svg width="51" height="51" viewBox="0 0 51 51" fill="none" xmlns="http://www.w3.org/2000/svg">
<path d="M19.6582 31.0655L21.6152 30.6133C21.6563 30.6038 21.7243 30.5882 21.8074 30.5614C22.3474 30.4161 22.8101 30.067 23.0981 29.5871C23.3861 29.1075 23.477 28.5348 23.3515 27.9898C23.3488 27.9778 23.3462 27.9664 23.3434 27.9545C23.2791 27.6933 23.1665 27.4463 23.0114 27.2268C22.7921 26.9484 22.5207 26.7157 22.2124 26.5414C21.8495 26.3344 21.4696 26.1584 21.0769 26.0155L18.9312 25.2323C17.727 24.7847 16.5229 24.3482 15.3075 23.9226C14.5193 23.6421 13.8515 23.3959 13.2713 23.2164C13.1617 23.1827 13.0409 23.1489 12.9426 23.115C12.2411 22.9 11.7483 22.8109 11.3311 22.8079C11.0525 22.7977 10.775 22.8483 10.5178 22.9562C10.2498 23.0718 10.0092 23.2426 9.81153 23.4576C9.71322 23.5694 9.62079 23.6862 9.53462 23.8075C9.45375 23.9312 9.37959 24.059 9.31246 24.1907C9.23853 24.332 9.175 24.4783 9.12238 24.6287C8.72413 25.806 8.52576 27.0415 8.5355 28.2841C8.54268 29.4075 8.57285 30.8492 9.1903 31.8266C9.33909 32.0774 9.53875 32.2943 9.77643 32.4632C10.2163 32.7668 10.6608 32.8069 11.1233 32.8402C11.8144 32.8898 12.4839 32.72 13.1513 32.5657L19.6527 31.0636L19.6582 31.0655Z" fill="#FFFDF9"/>
<path d="M41.4915 20.6754C40.9572 19.5541 40.2389 18.5303 39.3664 17.6467C39.2536 17.5345 39.1327 17.4307 39.0047 17.3362C38.8865 17.2475 38.7637 17.1651 38.6369 17.0893C38.5066 17.0178 38.3724 16.9533 38.2351 16.8961C37.9637 16.7896 37.6728 16.7416 37.3817 16.7552C37.1032 16.771 36.8313 16.8473 36.5852 16.9788C36.2119 17.1644 35.8081 17.4626 35.271 17.9619C35.1968 18.0356 35.1035 18.1188 35.0198 18.1972C34.5766 18.6138 34.0837 19.1275 33.4971 19.7256C32.5908 20.6415 31.6983 21.5623 30.8113 22.4932L29.2243 24.1389C28.9338 24.4396 28.6691 24.7645 28.4334 25.1099C28.2325 25.4018 28.0902 25.7301 28.0149 26.0765C27.9713 26.342 27.9777 26.6134 28.0337 26.8765C28.0364 26.8885 28.0391 26.8999 28.0418 26.9118C28.1673 27.457 28.4991 27.932 28.9678 28.2368C29.4362 28.5418 30.0047 28.6528 30.5537 28.5464C30.6407 28.5339 30.7082 28.5188 30.7492 28.5088L39.2106 26.5538C39.8774 26.3996 40.5541 26.2585 41.1532 25.9107C41.555 25.6777 41.9372 25.4467 42.1994 24.9808C42.3394 24.7248 42.4242 24.4421 42.4483 24.1514C42.578 22.9982 41.976 21.6886 41.4915 20.6754Z" fill="#FFFDF9"/>
<path d="M26.3465 24.2333C26.9596 23.463 26.9581 22.3149 27.0129 21.3762C27.1975 18.2401 27.3918 15.1035 27.5459 11.9656C27.6047 10.7771 27.7327 9.60468 27.6619 8.40711C27.6037 7.41916 27.5966 6.28486 26.9728 5.4741C25.8717 4.04438 23.5239 4.16188 21.9219 4.38366C21.4312 4.45178 20.9396 4.54336 20.452 4.66042C19.9644 4.77749 19.4817 4.90534 19.0095 5.05657C17.4724 5.56008 15.3114 6.48433 14.9454 8.25551C14.7392 9.25681 15.228 10.2811 15.6072 11.1949C16.0669 12.3026 16.6947 13.3004 17.267 14.3431C18.7798 17.0958 20.3208 19.8314 21.8574 22.5699C22.3163 23.3874 22.8165 24.4228 23.7043 24.8463C23.7629 24.872 23.8229 24.8947 23.8838 24.9142C24.2819 25.0649 24.7159 25.094 25.1307 24.9977C25.1557 24.9919 25.1802 24.9863 25.2047 24.9805C25.5877 24.8764 25.9345 24.6682 26.2065 24.3788C26.2557 24.3328 26.3024 24.2842 26.3465 24.2333Z" fill="#FFFDF9"/>
<path d="M25.6124 32.6289C25.3731 32.2924 25.0334 32.04 24.642 31.9081C24.2506 31.7763 23.8275 31.7715 23.4332 31.8948C23.3405 31.9255 23.2502 31.9631 23.163 32.0069C23.0282 32.0755 22.8995 32.1557 22.7784 32.2467C22.4258 32.5079 22.1288 32.8474 21.8585 33.1878C21.7899 33.2746 21.7273 33.3902 21.6457 33.4644L20.2847 35.3367C19.5133 36.3854 18.7525 37.4368 17.9981 38.505C17.5059 39.1946 17.0801 39.7769 16.7438 40.2922C16.6801 40.3892 16.6139 40.4975 16.5533 40.5839C16.1502 41.2075 15.922 41.6627 15.8048 42.0681C15.7168 42.3376 15.6889 42.6229 15.7232 42.9042C15.7607 43.1972 15.8593 43.4788 16.0127 43.7312C16.0943 43.8577 16.1822 43.9801 16.2761 44.0977C16.3737 44.211 16.4774 44.3188 16.5866 44.4208C16.7033 44.532 16.8281 44.6346 16.96 44.7275C17.8994 45.381 18.9278 45.8506 20.0095 46.2134C20.9097 46.5122 21.8454 46.6911 22.7924 46.7453C22.9535 46.7536 23.115 46.7499 23.2756 46.7349C23.4245 46.7219 23.5726 46.7011 23.7193 46.6726C23.8659 46.6385 24.0106 46.5963 24.1527 46.5467C24.4293 46.4432 24.6811 46.283 24.8919 46.0761C25.0915 45.8762 25.2451 45.6353 25.342 45.3698C25.4993 44.9777 25.6027 44.4797 25.6708 43.7406C25.6768 43.6356 25.6917 43.5095 25.7022 43.3938C25.7559 42.7806 25.7805 42.0602 25.82 41.2131C25.8865 39.9103 25.9387 38.6133 25.98 37.3127C25.98 37.3127 26.0676 35.0013 26.0674 34.9999C26.0874 34.4673 26.071 33.877 25.9232 33.3467C25.8584 33.0924 25.7534 32.8503 25.6124 32.6289Z" fill="#FFFDF9"/>
<path d="M40.9745 36.2481C40.6904 35.9366 40.2878 35.626 39.653 35.242C39.5615 35.1909 39.4541 35.1227 39.355 35.0633C38.8264 34.7454 38.1897 34.411 37.4459 34.0071C36.3033 33.3798 35.16 32.7683 34.0058 32.1618L31.9666 31.0803C31.861 31.0493 31.7536 30.973 31.6539 30.925C31.2622 30.7376 30.8468 30.5627 30.4157 30.4825C30.2671 30.454 30.1163 30.4384 29.9652 30.4357C29.8675 30.4345 29.7701 30.4405 29.6733 30.4534C29.2656 30.5167 28.8881 30.7069 28.5947 30.9974C28.3013 31.2878 28.107 31.6633 28.0393 32.0706C28.0083 32.3297 28.0178 32.5919 28.0675 32.8481C28.1672 33.3908 28.4095 33.9275 28.6601 34.3977L29.7491 36.4386C30.355 37.5897 30.9682 38.7342 31.597 39.875C32.0025 40.6192 32.34 41.2561 32.6562 41.7839C32.7161 41.8832 32.784 41.99 32.8353 42.082C33.22 42.7166 33.5293 43.116 33.8427 43.4025C34.0457 43.5985 34.2892 43.7477 34.5558 43.8399C34.8361 43.9328 35.133 43.9658 35.4268 43.9367C35.5764 43.9189 35.7248 43.8933 35.8715 43.8596C36.0161 43.8208 36.1586 43.7745 36.2981 43.7208C36.4491 43.6641 36.5956 43.5964 36.7365 43.5183C37.5645 43.0541 38.3275 42.4827 39.0063 41.819C39.8202 41.018 40.5396 40.1447 41.0992 39.1448C41.1771 39.0033 41.2444 38.8564 41.3009 38.7053C41.3537 38.5653 41.3994 38.4228 41.4378 38.2783C41.4707 38.1314 41.4962 37.9827 41.5137 37.8333C41.5417 37.5395 41.5075 37.2434 41.4137 36.9637C41.3213 36.6959 41.1713 36.4515 40.9745 36.2481Z" fill="#FFFDF9"/>
</svg>
